# xmcd
#
# Track frame offsets:
#	150
#	3396
#	18516
#	34674
#	46227
#	62531
#	90749
#	103639
#	122482
#	137848
#	153809
#	169407
#	188938
#	202329
#	214554
#	232367
#	252941
#
# Disc length: 3544 seconds
#
# Revision: 0
# Processed by: cddbd v1.5PL3 Copyright (c) Steve Scherf et al.
# Submitted via: dBpowerAMP V4.0
#
DISCID=eb0dd611
DTITLE=James Hand - Liveset Radio
DYEAR=2003
DGENRE=Country
TTITLE0=Introduction
TTITLE1=Baby, Baby, Don't Tell Me That
TTITLE2=Not Worth The Trouble Anymore
TTITLE3=The Truth Will Set You Free
TTITLE4=My Hearts' Been Cheatin' On Me
TTITLE5=In The Corner, At The Table, By The Jukebox
TTITLE6=I'm Just An Old Man With An Old Song
TTITLE7=Little Bitty Slip
TTITLE8=The Pain of Loving You
TTITLE9=Here Lies A Good Ol' Boy
TTITLE10=Take Me Back And Try Me One More Time
TTITLE11=Loose Talk
TTITLE12=When You Stopped Loving Me, So Did I
TTITLE13=Wabash Cannonball
TTITLE14=I Love You A Thousand Ways
TTITLE15=Shadows Where The Magic Was
TTITLE16=I Saw The Light
EXTD=
EXTT0=
EXTT1=
EXTT2=
EXTT3=
EXTT4=
EXTT5=
EXTT6=
EXTT7=
EXTT8=
EXTT9=
EXTT10=
EXTT11=
EXTT12=
EXTT13=
EXTT14=
EXTT15=
EXTT16=
PLAYORDER=
